<svg width="24" height="24" viewBox="0 0 24 24" fill="none" xmlns="http://www.w3.org/2000/svg">
<path fill-rule="evenodd" clip-rule="evenodd" d="M9 22C10.1046 22 11 21.1046 11 20C11 18.8954 10.1046 18 9 18C7.89543 18 7 18.8954 7 20C7 21.1046 7.89543 22 9 22ZM18 22C19.1046 22 20 21.1046 20 20C20 18.8954 19.1046 18 18 18C16.8954 18 16 18.8954 16 20C16 21.1046 16.8954 22 18 22Z" fill="white"/>
<path fill-rule="evenodd" clip-rule="evenodd" d="M4.7802 6.08154C4.71931 5.46769 4.20293 5 3.58606 5H3C2.44772 5 2 4.55228 2 4V3C2 2.44772 2.44772 2 3 2H4.72582C6.30859 2 6.63385 3.16788 6.79134 4.70149L6.82162 4.99641H8.97307C9.00258 4.99641 9.0318 4.99762 9.06067 5H19C20.6569 5 22 6.34315 22 8C22 8.11069 21.9922 8.22129 21.98 8.33129L21.42 14.3313C21.2512 15.8506 19.9687 17 18.44 17H8.58026C7.05161 17 5.76742 15.8506 5.59861 14.3313L4.7802 6.08154ZM7.58635 14.1104C7.64262 14.6169 8.07068 15 8.58023 15H18.44C18.9495 15 19.3737 14.6169 19.43 14.1104L19.99 8.11043C19.994 8.07376 20 8.0369 20 8C20 7.44772 19.5523 7 19 7H7.78744C7.31556 7 6.9462 7.40631 6.99106 7.87604L7.58635 14.1104Z" fill="white"/>
</svg>
